<svg width="449" height="513" viewBox="0 0 449 513" fill="none" xmlns="http://www.w3.org/2000/svg">
<path d="M417.1 104.9L255.5 8.90002C236.2 -2.59998 212.4 -2.59998 193.1 8.90002L31.5 104.9C12.2 116.3 0.299988 137.5 0.299988 160.4V352.3C0.299988 375.2 12.2 396.4 31.5 407.8L193.1 503.7C202.7 509.4 213.5 512.3 224.3 512.3C235.1 512.3 245.8 509.4 255.5 503.7L417.1 407.8C436.4 396.3 448.3 375.2 448.3 352.3V160.4C448.3 137.5 436.4 116.3 417.1 104.9Z" fill="white"/>
<path d="M417.1 104.9L255.5 8.90005C245.9 3.20005 235.1 0.300049 224.3 0.300049C213.5 0.300049 202.8 3.20005 193.1 8.90005L31.5 104.9C12.2 116.3 0.299988 137.5 0.299988 160.4V352.3C0.299988 375.2 12.2 396.4 31.5 407.8L193.1 503.7C202.7 509.4 213.5 512.3 224.3 512.3C235.1 512.3 245.8 509.4 255.5 503.7L417.1 407.8C436.4 396.3 448.3 375.2 448.3 352.3V160.4C448.3 137.5 436.4 116.3 417.1 104.9ZM198.8 493.9L37.2 398C21.4 388.6 11.6 371.1 11.6 352.3V160.4C11.6 141.6 21.4 124.1 37.2 114.7L198.8 18.8C206.6 14.2 215.4 11.8 224.3 11.8C233.2 11.8 242.1 14.2 249.8 18.8L411.4 114.7C424.7 122.6 433.7 136.3 436.2 151.7C430.8 140.3 418.8 137.1 404.7 145.4L251.8 239.9C232.7 251 218.7 263.6 218.7 286.5V474.9C218.7 488.7 224.2 497.6 232.8 500.2C230 500.7 227.2 501 224.3 501C215.4 500.9 206.5 498.5 198.8 493.9Z" fill="#F63700"/>
<path d="M374.8 370.8L334.5 394.9C333.4 395.5 332.6 396.2 332.6 397.5V408C332.6 409.3 333.5 409.8 334.5 409.2L375.4 384.4C376.5 383.8 376.6 382.6 376.6 381.3V372C376.7 370.7 375.8 370.2 374.8 370.8Z" fill="white"/>
<path d="M289.1 282.2C290.4 281.5 291.5 282.4 291.5 284.1L291.6 298C297.4 295.7 302.5 295.1 307.1 296.1C308.1 296.4 308.5 297.7 308.1 299.3L305 311.6C304.8 312.5 304.2 313.5 303.6 314.1C303.3 314.4 303.1 314.6 302.8 314.7C302.4 314.9 302 315 301.6 314.9C299.5 314.4 294.5 313.3 286.7 317.3C278.5 321.5 275.6 328.6 275.7 333.9C275.8 340.2 279 342.2 290.2 342.3C305.1 342.5 311.6 349.1 311.7 364.1C311.9 378.9 304 394.7 291.9 404.5L292.2 418.3C292.2 420 291.1 421.9 289.8 422.5L281.6 427.2C280.3 427.9 279.2 427.1 279.2 425.4L279.1 411.8C272.1 414.7 265 415.4 260.5 413.6C259.6 413.3 259.3 412 259.6 410.6L262.6 398.1C262.8 397.1 263.4 396.1 264.1 395.5C264.4 395.3 264.6 395.1 264.9 394.9C265.4 394.7 265.8 394.6 266.2 394.8C271.1 396.4 277.3 395.7 283.3 392.6C290.9 388.7 296 381 295.9 373.2C295.8 366.2 292 363.3 282.8 363.2C271.1 363.2 260.1 360.9 259.9 343.6C259.8 329.4 267.2 314.6 278.9 305.2L278.8 291.3C278.8 289.6 279.8 287.7 281.2 287L289.1 282.2Z" fill="white"/>
</svg>
