<svg width="2222" height="2500" viewBox="0 0 2222 2500" fill="none" xmlns="http://www.w3.org/2000/svg">
<g clip-path="url(#clip0)">
<path d="M2221.89 743.731C2221.87 701.695 2212.89 664.555 2194.73 632.683C2176.89 601.332 2150.17 575.067 2114.34 554.288C1818.52 383.559 1522.43 213.35 1226.72 42.4471C1146.99 -3.61597 1069.69 -1.94079 990.561 44.7906C872.821 114.298 283.331 452.354 107.672 554.193C35.335 596.116 0.130195 660.267 0.112836 743.653C0 1087 0.112836 1430.34 0 1773.7C0.0173594 1814.8 8.61893 1851.22 25.9783 1882.63C43.8237 1914.92 70.913 1941.91 107.576 1963.16C283.244 2065 872.812 2403.03 990.526 2472.55C1069.69 2519.31 1146.99 2520.98 1226.74 2474.89C1522.46 2303.98 1818.58 2133.78 2114.43 1963.05C2151.1 1941.81 2178.18 1914.8 2196.03 1882.54C2213.36 1851.14 2221.98 1814.72 2222 1773.6C2222 1773.6 2222 1087.09 2221.89 743.731" fill="#F63700"/>
<path d="M1224.71 44.6865C1145.12 -1.26377 1067.95 0.411414 988.946 47.0213C871.397 116.346 282.871 453.526 107.498 555.104C35.2743 596.914 0.130195 660.901 0.112836 744.07C0 1086.53 0.112836 1428.98 0 1771.44C0.0173594 1812.44 8.60157 1848.77 25.9349 1880.08C43.7543 1912.29 70.8002 1939.22 107.402 1960.41C165.684 1994.1 224.008 2027.72 282.376 2061.26L1906.28 437.364C1679.06 306.527 1451.78 175.793 1224.71 44.6865Z" fill="#F63700"/>
<path d="M1340.63 1102.17L1686.42 1104.61C1686.42 960.532 1540.58 607.703 1122.47 607.703C856.086 607.703 497.962 777.061 497.962 1263.97C497.962 1750.88 849.03 1909.66 1122.47 1909.66C1565.29 1909.66 1671.12 1603.25 1671.12 1430.09L1341.23 1411.23C1341.23 1411.23 1350.06 1611.51 1120.71 1611.51C909.015 1611.51 873.689 1352.18 873.689 1263.97C873.689 1129.9 921.366 914.669 1120.71 914.669C1320.07 914.669 1340.63 1102.17 1340.63 1102.17" fill="white"/>
</g>
<defs>
<clipPath id="clip0">
<rect width="2222" height="2500" fill="white"/>
</clipPath>
</defs>
</svg>
