<svg width="48" height="65" viewBox="0 0 48 65" fill="none" xmlns="http://www.w3.org/2000/svg">
<path d="M31.2399 23.116L24.8339 29.076L18.8899 17.086L21.9659 10.19C22.7659 8.79 24.0139 8.806 24.7939 10.19L31.2399 23.116Z" fill="#FB6900"/>
<path d="M18.89 17.0861L24.834 29.0761L0.894043 51.3461L18.89 17.0861Z" fill="#FB6900"/>
<path d="M38.246 14.006C39.39 12.906 40.574 13.282 40.876 14.84L47.108 51.05L26.452 63.45C25.732 63.85 23.812 64.022 23.812 64.022C23.812 64.022 22.064 63.814 21.398 63.422L0.894043 51.346L38.246 14.006Z" fill="#F63700"/>
<path d="M18.89 17.086L0.895996 51.346L8.91 1.27596C9.206 -0.28404 10.094 -0.43404 10.886 0.94196L18.89 17.086Z" fill="#FB6900"/>
</svg>
