<svg width="97" height="97" viewBox="0 0 97 97" fill="none" xmlns="http://www.w3.org/2000/svg">
<path d="M92.7101 44.408L52.5911 4.29099C50.2811 1.97999 46.5341 1.97999 44.2221 4.29099L35.8921 12.623L46.4591 23.19C48.9151 22.36 51.7311 22.917 53.6881 24.875C55.6571 26.845 56.2091 29.685 55.3581 32.15L65.5441 42.335C68.0091 41.485 70.8511 42.035 72.8191 44.006C75.5691 46.756 75.5691 51.212 72.8191 53.964C70.0671 56.715 65.6111 56.715 62.8581 53.964C60.7901 51.894 60.2781 48.854 61.3271 46.306L51.8271 36.807V61.804C52.4971 62.136 53.1301 62.578 53.6881 63.136C56.4381 65.886 56.4381 70.342 53.6881 73.095C50.9381 75.844 46.4791 75.844 43.7311 73.095C40.9811 70.341 40.9811 65.885 43.7311 63.136C44.4111 62.457 45.1981 61.943 46.0381 61.599V36.369C45.1981 36.025 44.4131 35.516 43.7311 34.832C41.6481 32.75 41.1471 29.692 42.2151 27.134L31.7981 16.715L4.28806 44.222C1.97706 46.535 1.97706 50.282 4.28806 52.593L44.4091 92.711C46.7191 95.022 50.4651 95.022 52.7781 92.711L92.7101 52.779C95.0211 50.468 95.0211 46.719 92.7101 44.408Z" fill="#F63700"/>
</svg>
