<svg width="65" height="40" viewBox="0 0 65 40" fill="none" xmlns="http://www.w3.org/2000/svg">
<path fill-rule="evenodd" clip-rule="evenodd" d="M63.8482 16.4201C65.277 13.0783 65.2513 9.8066 64.3615 7.20224C63.2784 3.99728 58.8311 -0.195005 57.404 1.4648C57.2192 1.6958 54.6611 1.39635 54.247 1.94905C53.6481 2.75329 53.9937 3.00996 54.2932 3.28374C55.1915 4.08797 57.4964 4.96579 58.5094 7.68479C58.9475 8.83638 59.9605 11.5348 58.21 13.1467C56.2045 14.9674 53.9698 15.3815 44.7981 6.85659C35.0446 -2.24666 21.8928 1.46651 17.5602 2.8936C13.2053 4.34464 11.2238 5.77344 12.9281 9.13925C15.2553 13.7011 14.4955 12.2963 16.7525 16.0522C20.3459 22.0412 28.2052 13.2871 28.2052 13.2871C22.3531 22.1131 17.3292 19.969 15.3939 16.9044C13.6827 14.1152 12.3053 10.9154 12.3053 10.9154C-2.51661 16.2833 1.49259 39.897 1.49259 39.897H8.85048C10.7396 31.2095 17.4455 31.5329 18.5971 39.897H24.2199C29.1822 22.9139 39.8204 39.897 39.8204 39.897H46.1516C46.1516 30.8416 45.207 27.4313 49.8391 26.8068C57.7668 25.7236 61.4526 22.0156 63.8499 16.4373L63.8482 16.4201Z" fill="#F63700"/>
<path fill-rule="evenodd" clip-rule="evenodd" d="M64.9775 10.2686C63.6389 10.3829 62.3128 10.6143 61.0145 10.9599C60.9683 11.0061 60.9461 11.0523 60.8999 11.1208C60.3232 11.7659 59.6097 12.411 58.7781 12.7566C58.6751 12.8194 58.5669 12.8732 58.4547 12.9175C58.3862 12.9859 58.3178 13.0783 58.2237 13.1485C56.2182 14.9691 53.7987 15.3832 44.8118 6.85833C35.1336 -2.31337 21.9304 1.48878 17.5739 2.91758C13.2173 4.34638 11.2375 5.77518 12.9418 9.13928C15.269 13.7012 14.5092 12.2963 16.7662 16.0523C20.3596 22.0413 28.2189 13.2871 28.2189 13.2871C22.3668 22.1131 17.3429 19.9691 15.4076 16.9044C13.6964 14.1153 12.319 10.9154 12.319 10.9154C-2.51659 16.2833 1.49261 39.897 1.49261 39.897H8.8505C10.7396 31.2095 17.4455 31.5329 18.5971 39.897H24.2199C29.1822 22.9139 39.8204 39.897 39.8204 39.897H46.1516C46.1516 30.8416 45.207 27.4313 49.8391 26.8068C57.7446 25.7236 61.4303 22.0361 63.8259 16.4373C64.7705 14.2949 65.0922 12.1971 64.9775 10.284V10.2686Z" fill="#F63700"/>
<path fill-rule="evenodd" clip-rule="evenodd" d="M38.2013 12.6426L46.1742 15.2925C45.9208 16.5138 43.6395 18.8642 40.6899 17.8734C36.8187 16.583 38.2013 12.6426 38.2013 12.6426V12.6426Z" fill="white"/>
<path d="M42.3042 17.0783C43.4305 16.9587 44.2498 15.9795 44.1342 14.8911C44.0187 13.8028 43.0119 13.0175 41.8856 13.1371C40.7593 13.2567 39.9399 14.2359 40.0555 15.3243C40.1711 16.4126 41.1778 17.1979 42.3042 17.0783Z" fill="#F63700"/>
<path fill-rule="evenodd" clip-rule="evenodd" d="M54.324 3.28722C54.5772 3.51822 54.9006 3.72527 55.2223 3.93232C56.7658 2.66608 58.7473 2.68832 60.4071 1.99873C58.9098 0.616134 56.557 -0.443061 55.799 0.455286C55.6142 0.68629 54.6936 1.39983 54.2589 1.95253C53.66 2.75677 54.0057 3.01344 54.3051 3.28722H54.324Z" fill="#F63700"/>
</svg>
