<svg width="36" height="36" viewBox="0 0 36 36" fill="none" xmlns="http://www.w3.org/2000/svg">
<path d="M17.8217 6.67037C16.1583 7.8403 14.273 9.1664 13.2628 11.3603C11.5083 15.1876 16.8532 19.3626 17.0815 19.5385C17.1347 19.5795 17.1982 19.5998 17.2615 19.5998C17.3288 19.5998 17.3962 19.5767 17.451 19.5309C17.5571 19.4422 17.5872 19.2915 17.5235 19.1687C17.5041 19.1314 15.5856 15.4049 15.6569 12.7313C15.6822 11.8003 16.9852 10.744 18.3648 9.62566C19.6283 8.60138 21.0605 7.44041 21.8986 6.08233C23.7382 3.09292 21.6935 0.153443 21.6727 0.124171C21.5914 0.0101518 21.4415 -0.0312776 21.3134 0.0250239C21.1853 0.0814434 21.1144 0.220013 21.1436 0.356813C21.1478 0.37617 21.5454 2.32005 20.439 4.3227C19.983 5.15023 18.9815 5.85476 17.8217 6.67037Z" fill="#F63700"/>
<path d="M24.8299 7.98867C24.9472 7.90027 24.9817 7.73903 24.9106 7.61038C24.8396 7.48172 24.6848 7.42495 24.5474 7.47712C24.2649 7.58453 17.6276 10.1429 17.6276 13.2343C17.6276 15.3651 18.5378 16.4909 19.2025 17.313C19.4632 17.6353 19.6883 17.9138 19.7624 18.1515C19.9712 18.8366 19.4765 20.0747 19.2686 20.494C19.2086 20.6146 19.238 20.7606 19.34 20.8487C19.3951 20.8962 19.4639 20.9203 19.5328 20.9203C19.5915 20.9203 19.6504 20.9028 19.7013 20.8674C19.8154 20.788 22.4904 18.8968 22.0106 16.6181C21.8319 15.7521 21.4062 15.1192 21.0307 14.5608C20.4489 13.6958 20.0287 13.0708 20.6662 11.9166C21.4133 10.5705 24.7958 8.01429 24.8299 7.98867Z" fill="#F63700"/>
<path d="M7.5529 20.9695C7.43911 21.31 7.49282 21.6482 7.70811 21.9472C8.42764 22.946 10.9762 23.4961 14.8847 23.4961C14.885 23.4961 14.8851 23.4961 14.8852 23.4961C15.4148 23.4961 15.9739 23.4857 16.5466 23.4652C22.7956 23.2414 25.1134 21.2947 25.209 21.212C25.3132 21.1218 25.3411 20.9715 25.2763 20.85C25.2115 20.7285 25.0717 20.6675 24.9382 20.7042C22.7375 21.3051 18.6279 21.5184 15.7774 21.5184C12.5878 21.5184 10.9634 21.2887 10.5658 21.1191C10.7699 20.8389 12.0285 20.3385 13.588 20.0318C13.7371 20.0025 13.8395 19.8649 13.8248 19.7137C13.81 19.5625 13.683 19.4471 13.5311 19.4471C12.6168 19.4473 8.03211 19.5207 7.5529 20.9695Z" fill="#F63700"/>
<path d="M28.4633 18.9646C27.1744 18.9646 25.9521 19.6105 25.9007 19.638C25.7815 19.7019 25.721 19.8385 25.7537 19.9698C25.7865 20.1009 25.9045 20.1931 26.0397 20.1932C26.0671 20.1933 28.7891 20.2155 29.0356 21.7707C29.254 23.1124 26.4602 25.2863 25.3652 26.0108C25.2469 26.0891 25.201 26.2404 25.2559 26.371C25.3025 26.4823 25.411 26.552 25.5278 26.552C25.5482 26.552 25.5689 26.5499 25.5894 26.5454C25.8493 26.4899 31.9461 25.1465 31.3015 21.5966C30.9082 19.4212 29.5409 18.9646 28.4633 18.9646Z" fill="#F63700"/>
<path d="M24.2822 25.5764C24.3034 25.4627 24.2561 25.347 24.1614 25.2807L22.6996 24.2567C22.6283 24.2068 22.5383 24.1911 22.4546 24.2133C22.4394 24.2173 20.9106 24.6191 18.6911 24.8655C17.8102 24.9643 16.8236 25.0165 15.8377 25.0165C13.6188 25.0165 12.1679 24.7558 11.9567 24.5645C11.9287 24.5108 11.9375 24.4864 11.9425 24.4728C11.9809 24.366 12.1866 24.2391 12.3193 24.189C12.4657 24.1348 12.5447 23.9757 12.4991 23.8263C12.4537 23.6768 12.2997 23.5888 12.1476 23.6254C10.6812 23.9792 9.96416 24.4741 10.0163 25.0962C10.109 26.1989 12.6636 26.765 14.8232 26.9148C15.1337 26.9361 15.4697 26.9469 15.8213 26.9469C15.8215 26.9469 15.8216 26.9469 15.8219 26.9469C19.413 26.9469 24.0167 25.8202 24.0628 25.8087C24.1751 25.781 24.2608 25.6902 24.2822 25.5764Z" fill="#F63700"/>
<path d="M13.261 27.9436C13.3717 27.8715 13.4208 27.7347 13.3815 27.6086C13.3424 27.4825 13.2244 27.3998 13.092 27.4015C12.8955 27.4066 11.169 27.4845 11.0482 28.5838C11.0116 28.9123 11.1056 29.2123 11.3279 29.4756C11.9478 30.2103 13.621 30.6469 16.4425 30.8106C16.7763 30.8305 17.1153 30.8406 17.4504 30.8406C21.0374 30.8406 23.4531 29.7175 23.5543 29.6697C23.6524 29.6233 23.717 29.527 23.7228 29.4186C23.7286 29.3104 23.6746 29.2076 23.582 29.1511L21.7346 28.0232C21.6705 27.9842 21.5938 27.9712 21.5206 27.9862C21.5089 27.9887 20.3359 28.2319 18.5656 28.4724C18.2307 28.5178 17.8112 28.5409 17.319 28.5409C15.5506 28.5409 13.5837 28.252 13.2065 28.0629C13.2011 28.0274 13.208 27.9825 13.261 27.9436Z" fill="#F63700"/>
<path d="M15.7787 34.2315C23.9949 34.2246 28.4047 32.7634 29.2542 31.844C29.555 31.5185 29.5874 31.2106 29.5618 31.0095C29.4987 30.5144 29.0479 30.2115 28.9967 30.1785C28.8733 30.0992 28.7078 30.12 28.6116 30.2309C28.5157 30.342 28.5134 30.5041 28.6098 30.6149C28.6616 30.6816 28.6916 30.7931 28.54 30.9448C28.2004 31.2619 24.7751 32.2247 19.072 32.5139C18.2908 32.5546 17.4714 32.5752 16.6367 32.5753C11.5303 32.5753 7.79333 31.8759 7.30278 31.4683C7.49199 31.1967 8.81372 30.7625 10.2195 30.5172C10.3779 30.4895 10.4849 30.3402 10.4604 30.1814C10.4358 30.0225 10.2894 29.9131 10.1293 29.934C10.0896 29.9393 9.95521 29.9475 9.79929 29.957C7.47983 30.0986 4.79943 30.4144 4.65957 31.6093C4.61707 31.9736 4.72531 32.3041 4.98132 32.5918C5.60772 33.2956 7.4083 34.2314 15.7783 34.2314C15.7786 34.2315 15.7786 34.2315 15.7787 34.2315Z" fill="#F63700"/>
<path d="M30.8681 32.103C30.7519 32.0493 30.6148 32.0765 30.528 32.17C30.5159 32.1829 29.2807 33.4747 25.5665 34.2332C24.1446 34.5181 21.4755 34.6626 17.6335 34.6626C13.7842 34.6626 10.1215 34.5111 10.0849 34.5096C9.93196 34.5022 9.80106 34.6133 9.78029 34.764C9.7594 34.9146 9.85642 35.0563 10.0042 35.0915C10.0423 35.1006 13.8809 35.9999 19.1293 35.9999C21.6466 35.9999 24.0961 35.7953 26.41 35.3919C30.7244 34.6355 31.0265 32.4962 31.0372 32.4056C31.0522 32.2788 30.984 32.1567 30.8681 32.103Z" fill="#F63700"/>
</svg>
