<svg width="223" height="97" viewBox="0 0 223 97" fill="none" xmlns="http://www.w3.org/2000/svg">
<g clip-path="url(#clip0)">
<path d="M36.5943 29.0441C36.6827 29.0008 36.7715 28.9584 36.8608 28.9164C39.3297 27.7533 42.2051 27.1708 45.4856 27.1708C48.7648 27.1708 51.6401 27.7537 54.1091 28.9164C56.578 30.0791 58.6431 31.638 60.3018 33.5897C61.9604 35.5414 63.2057 37.785 64.0346 40.3182C64.8644 42.8515 65.2799 45.4878 65.2799 48.2281C65.2799 50.9683 64.864 53.6064 64.0346 56.1392C63.2057 58.6724 61.9604 60.9156 60.3018 62.8677C58.6431 64.8194 56.578 66.3688 54.1091 67.5129C51.6401 68.6561 48.7648 69.2299 45.4856 69.2299C42.2055 69.2299 39.3297 68.6565 36.8608 67.5129C36.3504 67.2767 35.8504 67.019 35.362 66.7403C48.2279 78.3977 72.9974 86.2902 101.442 86.2902C124.579 86.2902 145.316 81.6095 159.161 73.3861C144.009 87.1536 116.982 96.8649 86.1233 96.8597C38.672 96.8528 0.208924 75.1629 0.213257 48.4164C0.21759 21.6695 38.6875 -0.00735973 86.138 1.87448e-06C117.12 0.00433223 144.217 9.74677 159.331 23.6113C145.485 15.336 124.663 10.5687 101.442 10.5687C73.88 10.5687 49.7687 17.9788 36.5943 29.0441ZM31.9827 54.2447C32.5239 56.2176 33.3736 57.9926 34.5331 59.5701C35.6917 61.1481 37.1788 62.4165 38.9952 63.3748C40.8103 64.3331 42.9729 64.8112 45.4856 64.8112C47.997 64.8112 50.1596 64.3331 51.9764 63.3748C53.791 62.4165 55.2781 61.1481 56.438 59.5701C57.5963 57.9926 58.446 56.2176 58.9867 54.2447C60.0687 50.3168 60.0687 46.1697 58.9867 42.2418C58.446 40.2689 57.5958 38.4938 56.438 36.9154C55.2781 35.3379 53.7906 34.0704 51.9759 33.1116C50.1596 32.1529 47.9965 31.674 45.4851 31.674C42.9733 31.674 40.8103 32.1529 38.9952 33.1116C37.1788 34.0704 35.6917 35.3379 34.5331 36.915C33.3736 38.4938 32.5239 40.2689 31.9827 42.2413C31.4444 44.1963 31.1719 46.2147 31.1724 48.2423C31.1724 50.2711 31.4415 52.2717 31.9827 54.2447V54.2447ZM73.4342 42.7211V46.1941H73.5208C74.2314 44.772 75.3472 43.7379 76.8698 43.0927C78.3924 42.4475 80.0658 42.1249 81.893 42.1249C83.9217 42.1249 85.6892 42.4886 87.1953 43.2161C88.7001 43.9436 89.9511 44.9266 90.949 46.1651C91.9468 47.4049 92.6986 48.8334 93.2073 50.4521C93.7143 52.0713 93.9686 53.7895 93.9686 55.607C93.9686 57.4244 93.7225 59.1423 93.2329 60.7623C92.7419 62.3818 91.9984 63.7944 91.0005 65C90.0026 66.2055 88.7504 67.1561 87.2456 67.8489C85.739 68.5418 83.9893 68.8895 81.9935 68.8895C81.3505 68.8895 80.6313 68.8232 79.837 68.6916C79.0314 68.5556 78.2413 68.3396 77.4786 68.0468C76.6908 67.7435 75.9479 67.3344 75.2705 66.8308C74.5705 66.3115 73.9766 65.663 73.5208 64.9203H73.4342V78.1513H69.0834V42.7211H73.4342V42.7211ZM88.8756 51.8339C88.555 50.6951 88.0671 49.6792 87.4089 48.7867C86.7507 47.8946 85.9071 47.1844 84.8776 46.6561C83.8472 46.1278 82.6418 45.8637 81.2587 45.8637C79.8067 45.8637 78.5753 46.1452 77.5635 46.7068C76.5505 47.2685 75.7242 48.0024 75.0824 48.911C74.4412 49.8186 73.9771 50.8518 73.6903 52.008C73.4042 53.1584 73.2599 54.3394 73.2604 55.5247C73.2604 56.7805 73.4112 57.9947 73.7163 59.1665C74.0191 60.3405 74.5005 61.3716 75.1587 62.264C75.8164 63.1561 76.6674 63.8749 77.7143 64.4193C78.7611 64.9645 80.0272 65.2368 81.5117 65.2368C82.9962 65.2368 84.2359 64.9567 85.2312 64.395C86.2264 63.8334 87.0289 63.0903 87.636 62.1649C88.2426 61.2408 88.6819 60.1842 88.9523 58.9942C89.2214 57.8046 89.3575 56.583 89.3575 55.3277C89.3581 54.1465 89.1959 52.9709 88.8756 51.8339V51.8339ZM116.158 66.7109C114.192 68.1637 111.719 68.8895 108.736 68.8895C106.634 68.8895 104.811 68.5595 103.269 67.8996C101.726 67.2383 100.43 66.3129 99.3783 65.1234C98.3276 63.9338 97.539 62.5135 97.0143 60.8606C96.4895 59.2085 96.1932 57.4071 96.1251 55.458C96.1251 53.5094 96.4297 51.7253 97.0411 50.1048C97.6516 48.4853 98.5083 47.0809 99.6106 45.8914C100.713 44.7014 102.02 43.7778 103.529 43.1165C105.038 42.4557 106.692 42.1249 108.491 42.1249C110.833 42.1249 112.774 42.5973 114.318 43.54C115.863 44.484 117.101 45.684 118.034 47.1407C118.967 48.5974 119.623 50.2135 119.969 51.908C120.325 53.6297 120.469 55.2684 120.401 56.8243H100.737C100.703 57.9458 100.837 59.0098 101.142 60.0157C101.446 61.0221 101.936 61.9129 102.613 62.6884C103.29 63.4636 104.152 64.0811 105.201 64.5431C106.25 65.0052 107.484 65.236 108.905 65.236C110.73 65.236 112.227 64.8233 113.394 63.9958C114.56 63.1687 115.33 61.9116 115.702 60.2231H119.971C119.395 63.0959 118.124 65.2585 116.158 66.7109H116.158ZM115.104 50.2659C114.715 49.376 114.192 48.6087 113.534 47.9665C112.875 47.3239 112.097 46.8125 111.202 46.4331C110.306 46.0534 109.318 45.8633 108.237 45.8633C107.122 45.8633 106.116 46.0534 105.221 46.4331C104.326 46.8125 103.558 47.3317 102.916 47.9903C102.27 48.6559 101.754 49.4362 101.395 50.291C101.023 51.1645 100.804 52.0968 100.737 53.0854H115.79C115.726 52.1131 115.494 51.1592 115.104 50.2659V50.2659ZM127.374 42.7211V46.7904H127.456C129.258 43.6812 132.117 42.1249 136.031 42.1249C137.766 42.1249 139.212 42.357 140.371 42.8207C141.527 43.2841 142.463 43.9293 143.178 44.7564C143.893 45.5835 144.395 46.5674 144.684 47.7088C144.973 48.8508 145.118 50.1165 145.118 51.5061V68.3802H140.767V51.0211C140.767 49.4349 140.292 48.1787 139.341 47.252C138.39 46.3266 137.084 45.8633 135.42 45.8633C134.097 45.8633 132.95 46.0624 131.982 46.4595C131.015 46.8566 130.208 47.4178 129.564 48.1453C128.92 48.8728 128.436 49.7242 128.113 50.6985C127.79 51.6742 127.629 52.7403 127.629 53.8982V68.3794H123.279V42.7211H127.374V42.7211ZM175.193 68.1014C173.228 68.9098 171.244 69.3147 169.243 69.3147C166.083 69.3147 163.243 68.7769 160.72 67.7038C158.197 66.6303 156.069 65.1515 154.336 63.2661C152.603 61.3824 151.274 59.1678 150.349 56.6242C149.425 54.0805 148.963 51.3377 148.963 48.3982C148.963 45.3843 149.424 42.5856 150.345 40.0038C151.268 37.4229 152.593 35.1712 154.322 33.2485C156.052 31.3258 158.176 29.8193 160.698 28.7254C163.22 27.6329 166.06 27.086 169.22 27.086C171.338 27.086 173.388 27.3977 175.371 28.0204C177.355 28.644 179.146 29.5603 180.744 30.7685C182.343 31.9767 183.662 33.4663 184.702 35.2361C185.742 37.0072 186.379 39.0382 186.609 41.3324H177.944C177.404 39.0767 176.364 37.384 174.823 36.2555C173.282 35.127 171.414 34.5628 169.22 34.5628C167.178 34.5628 165.444 34.949 164.02 35.722C162.595 36.4945 161.439 37.5316 160.553 38.8312C159.666 40.132 159.022 41.6113 158.618 43.2694C158.213 44.9279 158.012 46.6414 158.012 48.4125C158.012 50.1092 158.214 51.7582 158.619 53.3591C159.025 54.9605 159.671 56.402 160.557 57.6834C161.443 58.9643 162.6 59.9906 164.027 60.7631C165.454 61.5361 167.19 61.9224 169.235 61.9224C172.242 61.9224 174.564 61.1819 176.203 59.7C177.843 58.2182 178.798 56.0703 179.068 53.2556H169.94V46.628H187.247V68.4106H181.488L180.566 63.8412C178.949 65.8721 177.157 67.2925 175.192 68.1009L175.193 68.1014ZM201.956 28.1053V60.9026H222.062V68.3798H192.907V28.1053H201.956V28.1053Z" fill="#F63700"/>
</g>
<defs>
<clipPath id="clip0">
<rect width="223" height="97" fill="white"/>
</clipPath>
</defs>
</svg>
