<svg width="112" height="113" viewBox="0 0 112 113" fill="none" xmlns="http://www.w3.org/2000/svg">
<path d="M55.5102 0.397892C50.9265 0.41919 46.5492 0.81011 42.6977 1.49164C31.3514 3.49615 29.2914 7.69174 29.2914 15.4291V25.6479H56.1039V29.0541H29.2914H19.2289C11.4364 29.0541 4.61315 33.7379 2.4789 42.6479C0.017085 52.8609 -0.0921103 59.2339 2.4789 69.8979C4.38483 77.8357 8.93645 83.4916 16.7289 83.4916H25.9477V71.2416C25.9477 62.3917 33.6048 54.5854 42.6977 54.5854H69.4789C76.9339 54.5854 82.8852 48.4472 82.8852 40.9604V15.4291C82.8852 8.1628 76.7552 2.70436 69.4789 1.49164C64.8729 0.724917 60.0938 0.376594 55.5102 0.397892ZM41.0102 8.61664C43.7797 8.61664 46.0414 10.9153 46.0414 13.7416C46.0414 16.558 43.7797 18.8354 41.0102 18.8354C38.2307 18.8354 35.9789 16.558 35.9789 13.7416C35.9789 10.9153 38.2307 8.61664 41.0102 8.61664Z" fill="#F63700"/>
<path d="M86.2289 29.0542V40.9604C86.2289 50.1912 78.403 57.9604 69.4789 57.9604H42.6976C35.3618 57.9604 29.2914 64.2389 29.2914 71.5854V97.1167C29.2914 104.383 35.61 108.657 42.6976 110.742C51.185 113.237 59.3239 113.688 69.4789 110.742C76.229 108.787 82.8851 104.854 82.8851 97.1167V86.8979H56.1039V83.4917H82.8851H96.2914C104.084 83.4917 106.988 78.0563 109.698 69.8979C112.497 61.4991 112.378 53.4222 109.698 42.6479C107.772 34.8905 104.094 29.0542 96.2914 29.0542H86.2289ZM71.1664 93.7104C73.9459 93.7105 76.1976 95.9879 76.1976 98.8042C76.1976 101.631 73.9459 103.929 71.1664 103.929C68.3968 103.929 66.1351 101.631 66.1351 98.8042C66.1351 95.9879 68.3968 93.7104 71.1664 93.7104Z" fill="#F63700"/>
</svg>
