<svg width="107" height="128" viewBox="0 0 107 128" fill="none" xmlns="http://www.w3.org/2000/svg">
<path d="M94.1566 22.8189C83.7566 7.93378 63.2166 3.52179 48.3652 12.9841L22.2825 29.6078C18.759 31.8245 15.7367 34.752 13.409 38.2032C11.0812 41.6543 9.49914 45.5532 8.76389 49.6506C7.51969 56.5524 8.61327 63.6721 11.8715 69.8824C9.63887 73.2691 8.11613 77.0734 7.39529 81.0653C6.65225 85.2452 6.75133 89.5314 7.68673 93.6725C8.62214 97.8136 10.375 101.726 12.8426 105.181C23.2448 120.067 43.7849 124.478 58.634 115.016L84.7167 98.3921C88.2404 96.1756 91.2629 93.2482 93.5906 89.797C95.9184 86.3458 97.5004 82.4468 98.2353 78.3493C99.4793 71.4475 98.3866 64.328 95.13 58.117C97.362 54.7303 98.8841 50.9262 99.6043 46.9346C100.348 42.7547 100.249 38.4684 99.3136 34.3272C98.3781 30.186 96.625 26.2734 94.157 22.8189" fill="#F63700"/>
<path d="M45.8171 106.581C41.7124 107.649 37.3792 107.431 33.4025 105.957C29.4258 104.483 25.9973 101.824 23.58 98.3389C22.0957 96.2615 21.0414 93.9085 20.4787 91.4182C19.9161 88.9278 19.8564 86.3501 20.3034 83.8364C20.4547 83.0111 20.663 82.1972 20.9267 81.4007L21.4179 79.9029L22.7542 80.8844C25.8402 83.152 29.2908 84.876 32.9572 85.9822L33.9266 86.2763L33.8373 87.2438C33.7188 88.6202 34.0915 89.9941 34.8893 91.1219C35.6167 92.1716 36.6488 92.9727 37.8461 93.4171C39.0434 93.8615 40.3483 93.9277 41.5845 93.6069C42.1513 93.4554 42.6916 93.2179 43.1866 92.9028L69.27 76.281C69.9082 75.8791 70.4557 75.3487 70.8776 74.7235C71.2995 74.0984 71.5866 73.3922 71.7206 72.65C71.8544 71.8923 71.836 71.1156 71.6665 70.3651C71.4969 69.6146 71.1796 68.9054 70.7331 68.2788C70.0051 67.2289 68.9726 66.4275 67.7749 65.9829C66.5772 65.5383 65.2719 65.4718 64.0353 65.7924C63.4691 65.9439 62.9296 66.1812 62.4353 66.496L52.4821 72.8409C50.8454 73.8815 49.0592 74.6659 47.1856 75.1668C43.081 76.234 38.7478 76.0158 34.7711 74.5418C30.7945 73.0677 27.366 70.4088 24.9488 66.9241C23.4645 64.8467 22.4101 62.4938 21.8474 60.0034C21.2848 57.5131 21.2252 54.9354 21.6722 52.4217C22.1142 49.9578 23.0656 47.6133 24.4655 45.5382C25.8655 43.4631 27.6831 41.7029 29.8022 40.3704L55.8833 23.7472C57.5206 22.7049 59.308 21.9195 61.1833 21.4185C65.2878 20.3513 69.621 20.5695 73.5976 22.0435C77.5742 23.5175 81.0027 26.1764 83.42 29.6611C84.9042 31.7385 85.9585 34.0914 86.5212 36.5818C87.0838 39.0722 87.1435 41.6499 86.6966 44.1636C86.5446 44.9888 86.3363 45.8026 86.0733 46.5993L85.5821 48.0971L84.2465 47.1171C81.1606 44.8482 77.7097 43.1234 74.0428 42.0171L73.0734 41.7229L73.1627 40.7554C73.2801 39.3791 72.9075 38.0056 72.1107 36.8774C71.3832 35.8277 70.3511 35.0266 69.1538 34.5822C67.9565 34.1378 66.6516 34.0715 65.4155 34.3924C64.8486 34.5439 64.3083 34.7814 63.8134 35.0965L37.73 51.719C37.0918 52.1205 36.5445 52.6508 36.1229 53.2758C35.7012 53.9008 35.4146 54.6069 35.2813 55.349C35.1466 56.1066 35.1644 56.8835 35.3336 57.6341C35.5029 58.3848 35.8201 59.0941 36.2669 59.7207C36.9948 60.7706 38.0273 61.5719 39.225 62.0165C40.4227 62.4612 41.728 62.5277 42.9647 62.2071C43.5314 62.0553 44.0716 61.8178 44.5667 61.503L54.5186 55.1605C56.1545 54.1185 57.9406 53.3334 59.8145 52.8327C63.919 51.7655 68.2522 51.9836 72.2289 53.4577C76.2055 54.9317 79.634 57.5907 82.0513 61.0754C83.5355 63.1528 84.5899 65.5057 85.1526 67.996C85.7152 70.4864 85.7748 73.0641 85.3279 75.5778C84.8855 78.0418 83.934 80.3864 82.5341 82.4619C81.1342 84.5373 79.3167 86.2978 77.1979 87.631L51.1167 104.253C49.4793 105.295 47.6919 106.08 45.8167 106.581" fill="white"/>
</svg>
