<svg width="82" height="82" viewBox="0 0 82 82" fill="none" xmlns="http://www.w3.org/2000/svg">
<path d="M41 10H57H64.5858L68.2929 13.7071L72 17.4142V25V41V57V64.5858L68.2929 68.2929L64.5858 72H57H41H25H17.4142L13.7071 68.2929L10 64.5858V57V41V25V17.4142L13.7071 13.7071L17.4142 10H25H41Z" fill="white" stroke="#004853" stroke-width="2"/>
<path d="M11.2929 4.70711L14.5858 8L11.2929 11.2929L8 14.5858L4.70711 11.2929L1.41421 8L4.70711 4.70711L8 1.41421L11.2929 4.70711Z" stroke="#004853" stroke-width="2"/>
<path d="M77.2929 4.70711L80.5858 8L77.2929 11.2929L74 14.5858L70.7071 11.2929L67.4142 8L70.7071 4.70711L74 1.41421L77.2929 4.70711Z" stroke="#004853" stroke-width="2"/>
<path d="M77.2929 70.7071L80.5858 74L77.2929 77.2929L74 80.5858L70.7071 77.2929L67.4142 74L70.7071 70.7071L74 67.4142L77.2929 70.7071Z" stroke="#004853" stroke-width="2"/>
<path d="M11.2929 70.7071L14.5858 74L11.2929 77.2929L8 80.5858L4.70711 77.2929L1.41421 74L4.70711 70.7071L8 67.4142L11.2929 70.7071Z" stroke="#004853" stroke-width="2"/>
</svg>
