<svg width="52" height="52" viewBox="0 0 52 52" fill="none" xmlns="http://www.w3.org/2000/svg">
<path d="M11.5555 13H8.66666V15.8889H11.5555V13Z" fill="#F63700"/>
<path d="M34.6667 13H14.4445V15.8889H34.6667V13Z" fill="#F63700"/>
<path d="M11.5555 24.5556H8.66666V27.4444H11.5555V24.5556Z" fill="#F63700"/>
<path d="M34.6667 24.5556H14.4445V27.4444H34.6667V24.5556Z" fill="#F63700"/>
<path d="M46.2222 7.22222H5.77777C5.01159 7.22222 4.27679 7.52659 3.73502 8.06836C3.19325 8.61013 2.88889 9.34493 2.88889 10.1111V41.8889C2.88889 42.6551 3.19325 43.3899 3.73502 43.9316C4.27679 44.4734 5.01159 44.7778 5.77777 44.7778H46.2222C46.9884 44.7778 47.7232 44.4734 48.265 43.9316C48.8067 43.3899 49.1111 42.6551 49.1111 41.8889V10.1111C49.1111 9.34493 48.8067 8.61013 48.265 8.06836C47.7232 7.52659 46.9884 7.22222 46.2222 7.22222ZM5.77777 10.1111H46.2222V18.7778H5.77777V10.1111ZM5.77777 21.6667H46.2222V30.3333H5.77777V21.6667ZM5.77777 41.8889V33.2222H46.2222V41.8889H5.77777Z" fill="#F63700"/>
<path d="M11.5555 36.1111H8.66666V39H11.5555V36.1111Z" fill="#F63700"/>
<path d="M34.6667 36.1111H14.4445V39H34.6667V36.1111Z" fill="#F63700"/>
</svg>
