<svg width="24" height="12" viewBox="0 0 24 12" fill="none" xmlns="http://www.w3.org/2000/svg">
<path d="M9 3L12 0L15 3L18 6L15 9L12 12L9 9L6 6L9 3Z" fill="#F9F9F9"/>
<path d="M3 0H6V3V6L3 3L0 0H3Z" fill="#F9F9F9"/>
<path d="M3 9L6 6V9V12H3H0L3 9Z" fill="#F9F9F9"/>
<path d="M18 0H21H24L21 3L18 6V3V0Z" fill="#F9F9F9"/>
<path d="M18 9V6L21 9L24 12H21H18V9Z" fill="#F9F9F9"/>
<path d="M9 3L12 0L15 3L18 6L15 9L12 12L9 9L6 6L9 3Z" fill="#F9F9F9"/>
<path d="M3 0H6V3V6L3 3L0 0H3Z" fill="#F9F9F9"/>
<path d="M3 9L6 6V9V12H3H0L3 9Z" fill="#F9F9F9"/>
<path d="M18 0H21H24L21 3L18 6V3V0Z" fill="#F9F9F9"/>
<path d="M18 9V6L21 9L24 12H21H18V9Z" fill="#F9F9F9"/>
</svg>
