<svg width="43" height="43" viewBox="0 0 43 43" fill="none" xmlns="http://www.w3.org/2000/svg">
<path d="M40.0497 22.4078L31.7722 18.5975V7.68028C31.7684 7.45123 31.6989 7.22812 31.5718 7.03752C31.4447 6.84692 31.2655 6.69687 31.0556 6.60528L22.0972 2.48444C21.94 2.41168 21.7688 2.37399 21.5956 2.37399C21.4223 2.37399 21.2511 2.41168 21.0939 2.48444L12.1356 6.60528C11.9282 6.70123 11.7528 6.85463 11.63 7.04728C11.5072 7.23994 11.4422 7.46376 11.4428 7.69222V18.6094L3.20111 22.4078C2.99378 22.5037 2.81832 22.6571 2.69553 22.8498C2.57273 23.0424 2.50777 23.2663 2.50833 23.4947V35.1764C2.50777 35.4049 2.57273 35.6287 2.69553 35.8213C2.81832 36.014 2.99378 36.1674 3.20111 36.2633L12.1594 40.3842C12.3167 40.4569 12.4879 40.4946 12.6611 40.4946C12.8344 40.4946 13.0055 40.4569 13.1628 40.3842L21.6194 36.4903L30.0761 40.3842C30.2333 40.4569 30.4045 40.4946 30.5778 40.4946C30.751 40.4946 30.9222 40.4569 31.0794 40.3842L40.0378 36.2633C40.2451 36.1674 40.4206 36.014 40.5434 35.8213C40.6662 35.6287 40.7311 35.4049 40.7306 35.1764V23.4947C40.7322 23.2676 40.669 23.0446 40.5484 22.8521C40.4278 22.6596 40.2548 22.5055 40.0497 22.4078ZM36.6933 23.4947L30.5897 26.2778L24.4861 23.4947L30.5897 20.6878L36.6933 23.4947ZM21.6194 4.87333L27.7231 7.68028L21.6194 10.4872L15.5278 7.68028L21.6194 4.87333ZM12.6611 20.6758L18.7647 23.4828L12.6611 26.2778L6.5575 23.4947L12.6611 20.6758ZM20.425 34.4L12.6611 37.9833L4.89722 34.4V25.3581L12.1594 28.6667C12.3134 28.7359 12.4803 28.7717 12.6492 28.7717C12.818 28.7717 12.9849 28.7359 13.1389 28.6667L20.4011 25.3222L20.425 34.4ZM13.8556 18.5975V9.55555L21.1178 12.9C21.275 12.9728 21.4462 13.0105 21.6194 13.0105C21.7927 13.0105 21.9639 12.9728 22.1211 12.9L29.3833 9.55555V18.6094L21.6194 22.1928L13.8556 18.5975ZM38.3536 34.4119L30.5897 37.9953L22.8139 34.4119V25.3461L30.0881 28.6667C30.2404 28.7341 30.4052 28.769 30.5718 28.769C30.7384 28.769 30.9032 28.7341 31.0556 28.6667L38.3178 25.3222L38.3536 34.4119Z" fill="#F63700"/>
</svg>
