<svg width="43" height="43" viewBox="0 0 43 43" fill="none" xmlns="http://www.w3.org/2000/svg">
<path d="M37.3264 8.83889C34.6197 8.1165 31.9755 7.17783 29.4192 6.03194C26.9042 4.94095 24.4764 3.65916 22.1569 2.19778L21.5 1.79166L20.855 2.20972C18.5356 3.6711 16.1077 4.9529 13.5928 6.04389C11.0322 7.1863 8.38397 8.12098 5.6736 8.83889L4.77777 9.06583V19.0275C4.77777 35.0211 20.9386 41.0053 21.0939 41.065L21.5 41.2083L21.9061 41.065C22.0733 41.065 38.2222 35.0331 38.2222 19.0275V9.06583L37.3264 8.83889ZM35.8333 19.0275C35.8333 32.1664 23.8889 37.6728 21.5 38.6522C19.1111 37.6728 7.16666 32.1544 7.16666 19.0275V10.9172C9.68631 10.1929 12.1528 9.29488 14.5483 8.22972C16.944 7.19413 19.2666 5.99693 21.5 4.64639C23.7334 5.99693 26.0559 7.19413 28.4517 8.22972C30.8472 9.29488 33.3137 10.1929 35.8333 10.9172V19.0275Z" fill="#F63700"/>
<path d="M12.9955 20.1503C12.7671 19.9546 12.4731 19.8523 12.1725 19.864C11.8719 19.8756 11.5867 20.0002 11.374 20.2129C11.1613 20.4256 11.0367 20.7108 11.0251 21.0114C11.0134 21.312 11.1157 21.6059 11.3114 21.8344L18.478 29.0011L31.5333 16.4475C31.7614 16.2257 31.8921 15.9225 31.8965 15.6044C31.901 15.2863 31.779 14.9795 31.5572 14.7514C31.3355 14.5233 31.0322 14.3926 30.7141 14.3882C30.396 14.3837 30.0892 14.5057 29.8611 14.7275L18.5497 25.7044L12.9955 20.1503Z" fill="#F63700"/>
</svg>
