<svg width="501" height="512" viewBox="0 0 501 512" fill="none" xmlns="http://www.w3.org/2000/svg">
<path d="M160 224L192 192L224 224L256 256L224 288L192 320L160 288L128 256L160 224Z" fill="#F63700"/>
<path d="M168 232L192 208L216 232L240 256L216 280L192 304L168 280L144 256L168 232Z" fill="#00B9BD"/>
<path d="M176 240L192 224L208 240L224 256L208 272L192 288L176 272L160 256L176 240Z" fill="#F63700"/>
<path d="M184 248L192 240L200 248L208 256L200 264L192 272L184 264L176 256L184 248Z" fill="#00B9BD"/>
<path d="M405 224L437 192L469 224L501 256L469 288L437 320L405 288L373 256L405 224Z" fill="#F63700"/>
<path d="M413 232L437 208L461 232L485 256L461 280L437 304L413 280L389 256L413 232Z" fill="#00B9BD"/>
<path d="M421 240L437 224L453 240L469 256L453 272L437 288L421 272L405 256L421 240Z" fill="#F63700"/>
<path d="M429 248L437 240L445 248L453 256L445 264L437 272L429 264L421 256L429 248Z" fill="#00B9BD"/>
<path d="M159 96L191 64L223 96L255 128L223 160L191 192L159 160L127 128L159 96Z" fill="#004853"/>
<path d="M284 32L316 0L348 32L380 64L348 96L316 128L284 96L252 64L284 32Z" fill="#FB6900"/>
<path d="M284 160L316 128L348 160L380 192L348 224L316 256L284 224L252 192L284 160Z" fill="#F63700"/>
<path d="M284 288L316 256L348 288L380 320L348 352L316 384L284 352L252 320L284 288Z" fill="#F63700"/>
<path d="M284 416L316 384L348 416L380 448L348 480L316 512L284 480L252 448L284 416Z" fill="#FB6900"/>
<path d="M160 352L192 320L224 352L256 384L224 416L192 448L160 416L128 384L160 352Z" fill="#004853"/>
<path d="M32 160L64 128L96 160L128 192L96 224L64 256L32 224L0 192L32 160Z" fill="#F63700"/>
<path d="M32 288L64 256L96 288L128 320L96 352L64 384L32 352L0 320L32 288Z" fill="#F63700"/>
</svg>
